<?xml version="1.0" encoding="UTF-8" standalone="no"?>
<!-- Created with Inkscape (http://www.inkscape.org/) -->

<svg
   xmlns:dc="http://purl.org/dc/elements/1.1/"
   xmlns:cc="http://creativecommons.org/ns#"
   xmlns:rdf="http://www.w3.org/1999/02/22-rdf-syntax-ns#"
   xmlns:svg="http://www.w3.org/2000/svg"
   xmlns="http://www.w3.org/2000/svg"
   xmlns:sodipodi="http://sodipodi.sourceforge.net/DTD/sodipodi-0.dtd"
   xmlns:inkscape="http://www.inkscape.org/namespaces/inkscape"
   id="svg2985"
   version="1.1"
   inkscape:version="0.91 r13725"
   width="96"
   height="96"
   sodipodi:docname="icon.svg"
   inkscape:export-filename="C:\Users\micro\Documents\ic_launcher.png"
   inkscape:export-xdpi="135"
   inkscape:export-ydpi="135">
  <metadata
     id="metadata2991">
    <rdf:RDF>
      <cc:Work
         rdf:about="">
        <dc:format>image/svg+xml</dc:format>
        <dc:type
           rdf:resource="http://purl.org/dc/dcmitype/StillImage" />
        <dc:title></dc:title>
      </cc:Work>
    </rdf:RDF>
  </metadata>
  <defs
     id="defs2989" />
  <sodipodi:namedview
     pagecolor="#ff74eb"
     bordercolor="#666666"
     borderopacity="1"
     objecttolerance="10"
     gridtolerance="10"
     guidetolerance="10"
     inkscape:pageopacity="0"
     inkscape:pageshadow="2"
     inkscape:window-width="1522"
     inkscape:window-height="877"
     id="namedview2987"
     showgrid="true"
     inkscape:zoom="8.0780669"
     inkscape:cx="45.864409"
     inkscape:cy="49.722622"
     inkscape:window-x="70"
     inkscape:window-y="-8"
     inkscape:window-maximized="1"
     inkscape:current-layer="g3026"
     showguides="true">
    <inkscape:grid
       type="xygrid"
       id="grid3366" />
  </sodipodi:namedview>
  <g
     inkscape:groupmode="layer"
     id="layer1"
     inkscape:label="Pieces"
     style="display:none"
     sodipodi:insensitive="true">
    <ellipse
       style="fill:#000000;fill-opacity:1;fill-rule:evenodd;stroke:#ffffff;stroke-width:2.87479997;stroke-linecap:butt;stroke-linejoin:miter;stroke-miterlimit:4;stroke-opacity:1;stroke-dasharray:none"
       id="Body"
       transform="matrix(0.96713906,0,0,1.1259998,-33.042973,-3.3506754)"
       d="m 118.37288,35.389832 a 34.576271,24.813559 0 1 1 -69.152543,0 34.576271,24.813559 0 1 1 69.152543,0 z"
       sodipodi:type="arc"
       sodipodi:ry="24.813559"
       sodipodi:rx="34.576271"
       sodipodi:cy="35.389832"
       sodipodi:cx="83.796608" />
    <rect
       transform="matrix(-0.87357822,-0.48668377,-0.48668377,0.87357822,0,0)"
       ry="2.5"
       rx="2.5"
       y="-29.463585"
       x="-66.740135"
       height="13.2"
       width="5"
       id="RightAntenna"
       style="fill:#000000;fill-opacity:1;fill-rule:evenodd;stroke:#ffffff;stroke-width:3;stroke-linecap:butt;stroke-linejoin:miter;stroke-miterlimit:4;stroke-opacity:1;stroke-dasharray:none" />
    <rect
       style="fill:#000000;fill-opacity:1;fill-rule:evenodd;stroke:#ffffff;stroke-width:3;stroke-linecap:butt;stroke-linejoin:miter;stroke-miterlimit:4;stroke-opacity:1;stroke-dasharray:none"
       id="LeftAntenna"
       width="5"
       height="13.2"
       x="16.391665"
       y="16.850416"
       rx="2.5"
       ry="2.5"
       transform="matrix(0.87357822,-0.48668377,0.48668377,0.87357822,0,0)" />
    <rect
       transform="matrix(-0.93578166,0.35258003,0.33499863,0.94221861,0,0)"
       rx="7.5"
       ry="7.5"
       y="71.761055"
       x="-42.131191"
       height="38"
       width="15"
       id="RightLeg"
       style="fill:#000000;fill-opacity:1;fill-rule:evenodd;stroke:#ffffff;stroke-width:3.00026298;stroke-linecap:butt;stroke-linejoin:miter;stroke-miterlimit:4;stroke-opacity:1;stroke-dasharray:none" />
    <rect
       style="fill:#000000;fill-opacity:1;fill-rule:evenodd;stroke:#ffffff;stroke-width:3.00026298;stroke-linecap:butt;stroke-linejoin:miter;stroke-miterlimit:4;stroke-opacity:1;stroke-dasharray:none"
       id="rect3897"
       width="15"
       height="38"
       x="47.640553"
       y="38.600021"
       ry="7.5"
       rx="7.5"
       transform="matrix(0.93578166,0.35258003,-0.33499863,0.94221861,0,0)" />
    <path
       style="fill:none;stroke:#ffffff;stroke-width:2;stroke-linecap:butt;stroke-linejoin:miter;stroke-miterlimit:4;stroke-opacity:1;stroke-dasharray:none"
       d="m 14.440678,37.016948 67.118645,0"
       id="path3783"
       inkscape:connector-curvature="0" />
    <circle
       style="fill:#ffffff;fill-opacity:1;stroke:none"
       id="path3789"
       transform="translate(-0.40677967,-0.81355933)"
       d="m 36.813561,23.18644 a 2.0338984,2.0338984 0 1 1 -4.067796,0 2.0338984,2.0338984 0 1 1 4.067796,0 z"
       sodipodi:type="arc"
       sodipodi:ry="2.0338984"
       sodipodi:rx="2.0338984"
       sodipodi:cy="23.18644"
       sodipodi:cx="34.779663" />
    <circle
       transform="translate(26.847458,-0.81355933)"
       id="path3791"
       style="fill:#ffffff;fill-opacity:1;stroke:none"
       d="m 36.813561,23.18644 a 2.0338984,2.0338984 0 1 1 -4.067796,0 2.0338984,2.0338984 0 1 1 4.067796,0 z"
       sodipodi:type="arc"
       sodipodi:ry="2.0338984"
       sodipodi:rx="2.0338984"
       sodipodi:cy="23.18644"
       sodipodi:cx="34.779663" />
  </g>
  <g
     style="display:inline"
     inkscape:label="Merged"
     id="g3793"
     inkscape:groupmode="layer"
     sodipodi:insensitive="true">
    <path
       style="fill:#000000;fill-opacity:1;fill-rule:evenodd;stroke:#ffffff;stroke-width:3;stroke-linecap:butt;stroke-linejoin:miter;stroke-miterlimit:4;stroke-dasharray:none;stroke-opacity:1"
       d="M 25.65625,5.21875 C 25.333385,5.254192 25.021226,5.3627357 24.71875,5.53125 23.508844,6.205307 23.075943,7.7275942 23.75,8.9375 L 26.96875,14.75 C 19.391537,19.87218 14.5625,27.722092 14.5625,36.5 c 0,9.666167 5.883374,18.170923 14.8125,23.1875 -0.08076,0.180872 -0.18237,0.341035 -0.25,0.53125 l -7.6875,21.6875 c -1.391919,3.914918 0.611827,8.25378 4.5,9.71875 3.888173,1.46497 8.139331,-0.522582 9.53125,-4.4375 L 43.1875,65.53125 c 0.155768,-0.438114 0.239796,-0.899812 0.3125,-1.34375 1.473732,0.16585 2.971888,0.25 4.5,0.25 1.250631,0 2.472503,-0.07575 3.6875,-0.1875 0.06595,0.288961 0.148385,0.589198 0.25,0.875 l 7.71875,21.65625 c 1.391919,3.914918 5.643077,5.90247 9.53125,4.4375 3.888173,-1.46497 5.891919,-5.803832 4.5,-9.71875 L 66.03125,60.03125 C 75.296382,55.063577 81.4375,46.381126 81.4375,36.5 c 0,-9.00681 -5.111694,-17.015519 -13.03125,-22.125 L 71.4375,8.9375 C 72.111557,7.7275942 71.678656,6.205307 70.46875,5.53125 69.258844,4.857193 67.736557,5.2900942 67.0625,6.5 L 64,11.96875 C 59.246702,9.8000607 53.797365,8.5625 48,8.5625 c -6.078211,0 -11.775864,1.3506443 -16.6875,3.71875 L 28.09375,6.5 C 27.588207,5.5925706 26.624845,5.1124242 25.65625,5.21875 Z"
       id="path3795"
       inkscape:connector-curvature="0" />
    <path
       inkscape:connector-curvature="0"
       id="path3805"
       d="m 14.440678,37.016948 67.118645,0"
       style="fill:none;stroke:#ffffff;stroke-width:2;stroke-linecap:butt;stroke-linejoin:miter;stroke-miterlimit:4;stroke-dasharray:none;stroke-opacity:1" />
    <circle
       transform="translate(-0.40677967,-0.81355933)"
       id="path3807"
       style="fill:#ffffff;fill-opacity:1;stroke:none"
       cx="34.779663"
       cy="23.18644"
       r="2.0338984" />
    <circle
       style="fill:#ffffff;fill-opacity:1;stroke:none"
       id="path3809"
       transform="translate(26.847458,-0.81355933)"
       cx="34.779663"
       cy="23.18644"
       r="2.0338984" />
  </g>
  <g
     inkscape:groupmode="layer"
     id="g3026"
     inkscape:label="Status Holo"
     style="display:none"
     sodipodi:insensitive="true">
    <rect
       style="fill:#000000;fill-opacity:1;stroke:none"
       id="rect3048"
       width="92"
       height="92"
       x="2"
       y="2"
       ry="10"
       rx="10" />
    <path
       inkscape:connector-curvature="0"
       id="path3028"
       d="M 25.65625,5.21875 C 25.333385,5.254192 25.021226,5.3627357 24.71875,5.53125 23.508844,6.205307 23.075943,7.7275942 23.75,8.9375 L 26.96875,14.75 C 19.391537,19.87218 14.5625,27.722092 14.5625,36.5 c 0,9.666167 5.883374,18.170923 14.8125,23.1875 -0.08076,0.180872 -0.18237,0.341035 -0.25,0.53125 l -7.6875,21.6875 c -1.391919,3.914918 0.611827,8.25378 4.5,9.71875 3.888173,1.46497 8.139331,-0.522582 9.53125,-4.4375 L 43.1875,65.53125 c 0.155768,-0.438114 0.239796,-0.899812 0.3125,-1.34375 1.473732,0.16585 2.971888,0.25 4.5,0.25 1.250631,0 2.472503,-0.07575 3.6875,-0.1875 0.06595,0.288961 0.148385,0.589198 0.25,0.875 l 7.71875,21.65625 c 1.391919,3.914918 5.643077,5.90247 9.53125,4.4375 3.888173,-1.46497 5.891919,-5.803832 4.5,-9.71875 L 66.03125,60.03125 C 75.296382,55.063577 81.4375,46.381126 81.4375,36.5 c 0,-9.00681 -5.111694,-17.015519 -13.03125,-22.125 L 71.4375,8.9375 C 72.111557,7.7275942 71.678656,6.205307 70.46875,5.53125 69.258844,4.857193 67.736557,5.2900942 67.0625,6.5 L 64,11.96875 C 59.246702,9.8000607 53.797365,8.5625 48,8.5625 c -6.078211,0 -11.775864,1.3506443 -16.6875,3.71875 L 28.09375,6.5 C 27.588207,5.5925706 26.624845,5.1124242 25.65625,5.21875 Z"
       style="fill:#ffffff;fill-opacity:1;fill-rule:evenodd;stroke:none" />
    <path
       style="fill:none;stroke:#000000;stroke-width:2;stroke-linecap:butt;stroke-linejoin:miter;stroke-miterlimit:4;stroke-dasharray:none;stroke-opacity:1"
       d="m 14.440678,37.016948 67.118645,0"
       id="path3030"
       inkscape:connector-curvature="0" />
    <circle
       style="fill:#000000;fill-opacity:1;stroke:none"
       id="path3032"
       transform="translate(-0.40677967,-0.81355933)"
       cx="34.779663"
       cy="23.18644"
       r="2.0338984" />
    <circle
       transform="translate(26.847458,-0.81355933)"
       id="path3034"
       style="fill:#000000;fill-opacity:1;stroke:none"
       cx="34.779663"
       cy="23.18644"
       r="2.0338984" />
  </g>
  <g
     style="display:none;opacity:1"
     inkscape:label="Status Material"
     id="g3441"
     inkscape:groupmode="layer"
     sodipodi:insensitive="true">
    <path
       style="fill:#ffffff;fill-opacity:1;fill-rule:evenodd;stroke:none"
       d="M 26.017578,5.2070312 C 25.897551,5.2023056 25.777324,5.2054593 25.65625,5.21875 25.333385,5.254192 25.021226,5.3627357 24.71875,5.53125 23.508844,6.205307 23.075943,7.7275942 23.75,8.9375 l 3.21875,5.8125 c -7.315248,4.945092 -12.055039,12.435297 -12.375,20.845703 0.02874,-4.4e-5 0.05518,-0.002 0.08398,-0.002 l 66.033204,0 c 0.238198,0 0.461375,0.0107 0.695312,0.01367 -0.326536,-8.640699 -5.344083,-16.293034 -13,-21.232422 L 71.4375,8.9375 C 72.111557,7.7275942 71.678656,6.205307 70.46875,5.53125 69.258844,4.857193 67.736557,5.2900942 67.0625,6.5 L 64,11.96875 C 59.246702,9.8000607 53.797365,8.5625 48,8.5625 c -6.078211,0 -11.775864,1.3506443 -16.6875,3.71875 L 28.09375,6.5 C 27.6514,5.7059993 26.857766,5.2401107 26.017578,5.2070312 Z m 8.355469,15.1328128 a 2.0338984,2.0338984 0 0 1 2.033203,2.033203 2.0338984,2.0338984 0 0 1 -2.033203,2.033203 2.0338984,2.0338984 0 0 1 -2.033203,-2.033203 2.0338984,2.0338984 0 0 1 2.033203,-2.033203 z m 27.253906,0 a 2.0338984,2.0338984 0 0 1 2.033203,2.033203 2.0338984,2.0338984 0 0 1 -2.033203,2.033203 2.0338984,2.0338984 0 0 1 -2.033203,-2.033203 2.0338984,2.0338984 0 0 1 2.033203,-2.033203 z m 19.634766,18.904297 c -0.18604,0.0019 -0.362103,0.0098 -0.550781,0.0098 l -65.970704,0 c 0.999996,8.513986 6.565277,15.89998 14.634766,20.433594 -0.08076,0.180872 -0.18237,0.341035 -0.25,0.53125 l -7.6875,21.6875 c -1.391919,3.914918 0.611827,8.25378 4.5,9.71875 3.888173,1.46497 8.139331,-0.522582 9.53125,-4.4375 L 43.1875,65.53125 c 0.155768,-0.438114 0.239796,-0.899812 0.3125,-1.34375 1.473732,0.16585 2.971888,0.25 4.5,0.25 1.250631,0 2.472503,-0.07575 3.6875,-0.1875 0.06595,0.288961 0.148385,0.589198 0.25,0.875 l 7.71875,21.65625 c 1.391919,3.914918 5.643077,5.90247 9.53125,4.4375 3.888173,-1.46497 5.891919,-5.803832 4.5,-9.71875 L 66.03125,60.03125 C 74.426849,55.529793 80.241291,47.973966 81.261719,39.244141 Z"
       id="path3445"
       inkscape:connector-curvature="0" />
    <rect
       style="fill:#000000;fill-opacity:0"
       id="rect3466"
       width="84.203392"
       height="2.4406779"
       x="3.4576271"
       y="35.59322"
       rx="10"
       ry="2.4406779" />
    <rect
       style="fill:#000000;fill-opacity:0"
       id="rect3468"
       width="84.203392"
       height="3.6610169"
       x="3.4576271"
       y="35.59322"
       rx="10"
       ry="2.44068" />
    <rect
       style="fill:#000000;fill-opacity:0"
       id="rect3472"
       width="82.372879"
       height="2.4406779"
       x="5.2881355"
       y="35.59322"
       rx="10"
       ry="2.4406779" />
    <rect
       style="fill:#000000;fill-opacity:0"
       id="rect3476"
       width="87.254242"
       height="2.4406779"
       x="2.2372882"
       y="35.59322"
       rx="10"
       ry="2.4406779" />
  </g>
</svg>
